<svg width="3786" height="3222.6" viewBox="0 0 1001.7 852.6" xmlns="http://www.w3.org/2000/svg">
  <g style="fill:#51462f;fill-opacity:1">
    <path style="opacity:1;fill:#e4cda2;fill-opacity:1;stroke:none;stroke-width:.899999;stroke-miterlimit:4;stroke-dasharray:none;stroke-opacity:1" d="M906.8-164c-5.5 0-10.9.5-16.3.8h-.5c-9.8-.8-19.6-1.2-29.5-.7-5.4 0-10.8 0-16.2.2-1.8.1-3.6.6-5.4.8-5.8.8-11.6 1.2-17.3 2.3l-5.6 1.4c-4.8 1.5-9.9 3-15 3.2-2.7 0-5.4-.3-8-.2-6.4 0-11.4.7-17.7 1.3-7.4 1.5-14.8 2.5-22 4.4l-5.4 1.6c-3.5-.7-7.2-1.2-10.8-1.7-1.8 0-19-.5-24.9 0-6.1.4-12.2 1.5-18.3 2.5l-9.8-.6c-12-.6-24-.3-36-.5-2.5 0-4.8.4-7.2.8-7-.8-14-1.8-21-2.5l-5.2-.5c-2.8-.2-5.7 0-8.5-.2-4.6-.4-9.1-1.3-13.6-2-14.3-1.8-28.9-1.2-43.3-1-4.3.2-8.6 1.4-13 1.2-2.8-.1-5.1-.6-8-1.1-1.8-.2-6.7.8-5.4-.5l.4-.2h-.2c-5.2 0-10.3.1-15.5.6-6.5.8-13.2.4-19.7 1.3-6 .8-15.1 7.5-20 11l-2.5 2-1.8-.8-8-2-4.3-2.8c-9-4.6-12.6-4-24.1-2.5l-.8.2c3.2-.1 5.8-.2 3.9.1a134.4 134.4 0 0 1-7.6 1c-10.2.8-2-2.4-12 2.1a38.2 38.2 0 0 0-5 4c-7.3-.8-8.6-.6-14.9.2-7.9 2-15.6 5.2-22 10.1-4 2.9-4.7 4-8 7.4-7 8.7-10.4 18.3-6.3 29.6l.4.8v2.6c-4.9 1.7-8.1 6.6-11 10.8-.9 2.9-2.6 5.6-2.7 8.6-.4 10 1.6 14.6 8.6 21 1.7 1.6 4 2.4 6.1 3.5 1.9.9 2 1.1 2.5 1l.5.4c-.7 3-1.2 5.8-1.3 8.8-.3.2-3.2 5.9-3.5 6.6-3.6 8.4-2.4 15.6 0 23.8.2.3.3.5.3.8l-.3.2a47.6 47.6 0 0 0 .5 11.3c.8 3 1 5.7.8 8.6-1.1.4-1.5 4-1.7 4.8-1 4.3-1.4 8.5-1.7 12.9-.6 6 1.1 12 1.3 18-.8 5.5-1.2 11-2.4 16.3-1.4 7.4-1.9 14.8-2.4 22.2-.5 8.7 0 17.5 2.2 26 1.7 4.2 2 8.6 2.5 13 1 5.4 1.6 10.8 2.5 16.2.4 2.7.4 5.4.5 8.2 0 4.1.2 8.3.6 12.5 0 4.6-1.2 9-1.1 13.7l.3 13v.6c-.5 3.4-.4 6.8 0 10.2 0 4.2 0 8.4-.6 12.6-.7 7.9-.6 15.9.4 23.7.1 1.3.5 3.7.5 5 0 3.1-.7 6.2-.7 9.3 0 4.7.8 9.5.5 14.2-.7 6.6-2 13.1-1.5 19.8.3 7 1.1 14.1.5 21.2-.1 5.7.5 11.4.8 17.1-1 6.2-2.6 12.5-2 18.8.3 5.2-.8 10.3-1.6 15.4l-.3 2.3v1.8l-.8 3c-1 4.1-1.5 8.3-2.1 12.4-1.6 8.9-1.8 18-1.6 27 .4 6.2.6 12.4-.2 18.6-.5 6.2-.2 12.4 0 18.6.4 3.6.8 7.2.4 10.8 0 3.8-1.4 7.6-.8 11.4-1 2.5-1.3 5.2-1.8 7.8-.8 7.8-.5 15.6 1.5 23.2l.7 2.4c.1.3.4.6.4 1 .3 1 .3 2.5.8 3.6 0 .1.3 0 .4.2.2 1 .2 2.2.3 3.3 0 .6.8 7.2 1.2 6.6-.8 5-1 10 .1 14.9a37.8 37.8 0 0 0 5 14.7 33.7 33.7 0 0 0-4.3 7.6c-.7 1.8-1.2 3.7-1.7 5.6a29 29 0 0 0 1.1 15.8c-1.9 1.2-3.8 2.6-5.5 4-1.3 1.6-3 3-3.8 4.7-5 9.6-4.8 17 .4 26.2 1.7 3.8 4.2 7.1 7.1 10l-.3 3.2c-.1 3 .8 5.8.9 8.7-.3 2.9-.2 5.7-.2 8.5.8 8.3 5.5 14.6 10.8 20.6 3.1 3.3 6 7 9 10.4 3.8 4.7 8.2 8.5 13.7 11.2 1.6.7 4.5 1.5 6.1 2 10.2 2 17.2 1.8 23.7-1.4l.8 1.4c2.8 4.3 12 5.8 16.9 6.3 4.4 0 8.8.6 13.2.2 2.3-.2 4.4-1 6.6-1.8 3.7-1.4 7.1-3.5 10.1-6.2 9.5 4 20.9 3 30.6 3 3.6-.2 7.1-1.1 10.6-1.8l4.6.7c9.8 0 19.7 0 29.6.2h3.2l7.3.4c-2.1.6-4.7-.7-6.6.5-1.5 1 3.5.4 5.2.4l18.3-.2c13-1.4 25.9-5 38.4-9 4-1 8.2-2.1 12.5-1.7 1.6.2 5.7-.4 4.8 1-1.1 1.6-7.3-.7-5.9.6 1.9 1.7 5 .6 7.5.9 8.2.8 16.3 1.2 24.5 1 4.4 0 8.7-.4 13-.5l17.2-.2c8.8-.6 17.7-.9 26.6-1.1h3.7l-7.1.1h4.2c4.6.2 9.1.3 13.7.7a303.2 303.2 0 0 0 40.7.3 114.5 114.5 0 0 1 30.8-2.2h-7.2c-1.5.2 3 .1 4.5.2l20.6.8 5.4.1 16.5-.1c4.2-.1 4-.5 7.9-.8 3.3-.2 4.4 0 7.8.4 7.3 0 14.5-1 21.8-1.2l10.8.3c1.8 0 6.8-.3 5.8 0 4.4 0 8.8-.2 13.3-.8 9-1.1-2.5.3 18.5-.9 1.3 0 2.6-.4 4-.5 4.4-.3 9.1.6 13.6 1-2.2.2 1.2.2 4.8.1.9 2 4.3.4 6.5.5 9.2.8 5.4.6 14.6.6 2.2-.1 4.4-.1 6.5-.4 4.2-.4 8.3-1.5 12.5-1.6 11.8-.3 10-.4 17.2 0 6 .6 12 .8 17.9 1.2 2 .2 4.7-1 6 .5 1.3 1.3-3.4.3-5 .5 11 .9 22.3.5 33.2-1.8 3.4 0 7-.2 10.4.5l4.3 1.2 5 1 17.4.6 6.4.3c8 0 4.1-.3 11.6-.6 4.4-.2 6.7 0 11 0 11.5-.5 1.2.2-2.2-.8-1-.3 2-.4 3-.7.7-.2 1.2-.6 1.9-.7.8 0 1.7.3 2.5.5l3.3.5c9.6.8 19.2-1.2 28.7 0-2.8 0-5.7-.4-8.5.4-1.3.4 2.8.5 4.2.8 7.3 1 14.6 1.8 22 2 2 1.6 7.8-1.5 10.1-1 2.1.2 4 1 6.1 1.5 1.1.3 2.2.6 3.4.7l14 .4c3.1 0 6.2-1 9.3-1 6.6-1 12-4.8 18-7.7l.6-.3c1 .7 1.9 1.5 3 2l.7.2c.2 0 .5.3.6 0 0-.4-.2-.8-.4-1.2l-.2-.9h-3.6c2.8-1.3 4-1.3 7 0h-3l.3.8c1.3 2.3 1.9 5.2 3.7 7a29 29 0 0 0 11.3 8.5c8 2.5 13.7 1 20.6-.6a28.6 28.6 0 0 0 21.2-20.4c9.8.5 19.7-1.5 29.5-2.1 1.8-3.4 3.9-6.6 5.4-10.1.8-2 1-4 1.5-6 1.7-6.6 2.3-13.1 2.7-19.8a84 84 0 0 0 10.8-17.3c1.5-2.9.3-6.4.1-9.6-.4-7.2-3.1-14.2-5.4-20.9-2.3-4.9-5-9.7-8.1-14a52.3 52.3 0 0 0 9.3-26c.3-2.7.2-5.5.3-8.3-.5-6.5-1.4-13-3.2-19.1a22 22 0 0 0-2.6-6.1 118.2 118.2 0 0 0 2.7-29.6c-.6-9.5.3-19 .5-28.5 0-12.2 2.2-24.2 2.5-36.4v-10c-1-13.7-3.1-27.2-4.2-40.8-.1-7.1.4-14.2-.7-21.2-.5-3.3-1.5-6.3-2.4-9.5 0-1.8-1.5-3-2-4.7-1-2.9-1.1-6.2-1.4-9.1.1-6.9-1-13.6-1.2-20.4.6-11 1.7-22 2.1-33 .5-12.4-.3-24.9-.5-37.3-.6-10.6.3-21.1-.1-31.7-.8-7-1.2-13.9-1.1-20.9-.4-7.1.5-14.2 1-21.4.8-10 2.4-19.7 4.3-29.5 2-11 5.4-21.7 6.5-32.9-.1-3.7 0-7.6-.7-11.2-.4-2.5-1.3-5-1.8-7.4-.1-.4.6.5 1 .8 1.2-6.6 1.6-13.4 2.3-20.1.1-7.4.4-14.9-.6-22.2-.4-2.8-1.2-5.6-2-8.4-1.3-8.2-5.1-14.9-9.5-21.7-2.4-4.3-5-8.4-7.7-12.5 1.5-1.5 3.3-2.8 4.5-4.6 5.9-9.2 5.5-10.8 4.6-21l.4 1.4c.9 0 2.7-3 2.8-3 6-9.8 6.5-17.3 3.8-28.1-.1-3.2-.5-6.3-.9-9.4a36 36 0 0 0-14.4-22.6c.2-5.8-.8-11.6-3-17.2-2.3-7-6-13.7-11.3-19l-3.7-3.2c-4.8-3.2-8.1-5.8-13.7-8.3-2.2-1-4.6-1.4-7-2-11-2.5-22.2-1.3-33.5-1a39.3 39.3 0 0 0-15.6 7.1 30.4 30.4 0 0 0-12.8-3.6c-7.4-.4-13-.6-18.6.2l-2.7-2.5c-5.2-3.9-14.4-10.2-21-10.5-3-.1-16.4 1-22.5 1.5-7.5.2-14.5 2.7-21.7 4.6l-6.2 1.4c-6.8 2.2-4.5 1.5-9.6 2.9-10.4-3-21.1-2.8-31.8-3.1-2.2-.1-5.3 1.6-6.4-.2l-.1-.2c-5 0-10.1 0-15.2-.5-1.8-.1-3.6-.4-5.4-.7-1.8 0-3.7-.2-5.5-.4-10.1-.2-20.1-1.7-30.3-1.4-3.2.3-6.3.9-9.5.7-1.1-.1-2.2-.4-3.3-.4-21.2-1.5-9.2-.1-22-1.8-5.8-.5-11.6 0-17.4.6l-3.3.3-10.2-3.1c-10-2.5-20.3-1.9-30.5-2-5.2 0-5.4-.1-10.8-.5l-5.4-.1zm168.8 9.3h6.2c-2 0-6.5-1.3-6.2 0zm156 824-.3-.1.3.1zm-350.2 4H875c2 .2 4.1.5 6.1 0h.2zM422.7-147.3l1.6-.1c.6-.3 1.2-.7 2.1-1l-6 .3c-.7 0 2.6.5 2 .7l.3.1zm100.6-8 1.2-.2c-.5 0-.8 0-1.2.2zm1.2-.2c1.5.2 3.4 1.2 4.4.3 1.2-1.2-2.1-.5-4.4-.3zm448-2.3-2 .6c-1.1 0-2.3-.3-3.5-.5 3.3.2 5.5-.2 5.4-.1zm146.3 8 2 .2c.2 0-.2.4-.3.3-.6 0-1.2-.2-1.7-.4zM752.4-148l2.1.1h-2.1zm-304.6 5.5c-.6.5-1.7.9-3.8 1.1-.4 0 .7-.8 1.2-.8l2.6-.3zM459-141l.5.3.3.2-.8-.5zm-39.4 4.7s4.4 1.8 2.4 1.6l-3-1.5h.6zm-26.7 33.6.4.2.8.5v1.2l-.4-.7c-.3-.4-.8-.8-1-1.2 0-.2 0-.1.2 0zm-35.2 68c0 1.7.3 2.6 0 1.8-1 .5-.4-.8 0-1.9zM1335 598.7c0 .3.2.6.3.8.1.5-.8 4.6-.7 3.3 0-1.4.2-2.7.4-4zm-110.9 68.6c1-.4 5.4 2.2 2.8 1.4l.5.4-3.4.1c.1-.2.3-.5.2-1 0-.1-.3-.3-.3-.5s0-.3.2-.4zM505.6 681h.6-1 .4z" transform="translate(-337.7 164.1)"/>
    <g style="fill:none;fill-opacity:1">
      <g style="fill:none;fill-opacity:1;stroke:#9c814c;stroke-opacity:1">
        <g style="fill:none;fill-opacity:1;stroke:#9c814c;stroke-width:1.3981;stroke-opacity:1">
          <g style="fill:none;fill-opacity:1;stroke:#9c814c;stroke-width:1.3981;stroke-opacity:1">
            <path transform="matrix(.26458 0 0 .26458 -917.4 -30)" d="M7108 520.8c52.8-45 73-115 56-178.7h.1a175.4 175.4 0 0 0-303.5-69" style="fill:none;fill-opacity:1;stroke:#9c814c;stroke-width:8.69291;stroke-linecap:square;stroke-linejoin:round;stroke-miterlimit:4;stroke-dasharray:none;stroke-opacity:1"/>
          </g>
          <path transform="matrix(.39424 .5966 -.5973 .39378 1247.3 135.4)" style="fill:none;fill-opacity:1;stroke:#9c814c;stroke-width:3.21563;stroke-linecap:square;stroke-linejoin:round;stroke-miterlimit:4;stroke-dasharray:none;stroke-opacity:1" d="M-272.1 268.6a33 33 0 0 1 32.7-.4 33 33 0 0 1 17 28.1"/>
          <path transform="matrix(-.32414 .63732 .63549 .32877 1247.3 135.4)" style="fill:none;fill-opacity:1;stroke:#9c814c;stroke-width:3.21568;stroke-linecap:square;stroke-linejoin:round;stroke-miterlimit:4;stroke-dasharray:none;stroke-opacity:1" d="M151.4-340.6a23.6 23.7 0 0 1 23.5-.2 23.6 23.7 0 0 1 12 20.2"/>
        </g>
        <g style="fill:none;fill-opacity:1;stroke:#9c814c;stroke-width:1.582;stroke-opacity:1">
          <g style="fill:none;fill-opacity:1;stroke:#9c814c;stroke-width:1.582;stroke-opacity:1">
            <path transform="matrix(.26458 0 0 .26458 -917.4 -30)" d="M7091.5 507.9a155 155 0 0 0 49.7-157.5l.4.1a155 155 0 0 0-73.2-95.2l-.9-.5a155.6 155.6 0 0 0-36.9-15h0a154.7 154.7 0 0 0-157.2 49.8" style="fill:none;fill-opacity:1;stroke:#9c814c;stroke-width:8.69291;stroke-linecap:square;stroke-linejoin:round;stroke-miterlimit:4;stroke-dasharray:none;stroke-opacity:1"/>
          </g>
          <path transform="matrix(.3485 .5271 -.528 .34791 1210 128.8)" style="fill:none;fill-opacity:1;stroke:#9c814c;stroke-width:3.6386;stroke-linecap:square;stroke-linejoin:round;stroke-miterlimit:4;stroke-dasharray:none;stroke-opacity:1" d="M-272.1 268.6a33 33 0 0 1 32.7-.4 33 33 0 0 1 17 28.1"/>
          <path transform="matrix(-.29537 .55852 .56622 .28172 1210 128.8)" style="fill:none;fill-opacity:1;stroke:#9c814c;stroke-width:3.6391;stroke-linecap:square;stroke-linejoin:round;stroke-miterlimit:4;stroke-dasharray:none;stroke-opacity:1" d="M145-337.4a28.4 29.2 0 0 1 28.3-.3 28.4 29.2 0 0 1 14.6 25"/>
        </g>
        <path style="fill:none;fill-opacity:1;stroke:#9c814c;stroke-width:2.3;stroke-linecap:square;stroke-linejoin:round;stroke-miterlimit:4;stroke-dasharray:none;stroke-opacity:1" d="M1901.2 180v111.7" transform="translate(-917.4 -30)"/>
        <path style="fill:none;fill-opacity:1;stroke:#9c814c;stroke-width:2.3;stroke-linecap:square;stroke-linejoin:round;stroke-miterlimit:4;stroke-dasharray:none;stroke-opacity:1" d="M1895.6 175.5v82.2" transform="translate(-917.4 -30)"/>
      </g>
      <g style="fill:none;fill-opacity:1;stroke:#9c814c;stroke-width:1.3981;stroke-opacity:1">
        <path style="fill:none;fill-opacity:1;stroke:#9c814c;stroke-width:3.21563;stroke-linecap:square;stroke-linejoin:round;stroke-miterlimit:4;stroke-dasharray:none;stroke-opacity:1" transform="matrix(-.5966 -.39424 -.39378 .5973 870.2 -241.8)" d="M-272.1 268.6a33 33 0 0 1 32.7-.4 33 33 0 0 1 17 28.1"/>
        <path style="fill:none;fill-opacity:1;stroke:#9c814c;stroke-width:3.21568;stroke-linecap:square;stroke-linejoin:round;stroke-miterlimit:4;stroke-dasharray:none;stroke-opacity:1" transform="matrix(-.63732 .32414 -.32877 -.63549 870.2 -241.8)" d="M151.4-340.6a23.6 23.7 0 0 1 23.5-.2 23.6 23.7 0 0 1 12 20.2"/>
      </g>
      <g style="fill:none;fill-opacity:1;stroke:#9c814c;stroke-width:1.582;stroke-opacity:1">
        <path style="fill:none;fill-opacity:1;stroke:#9c814c;stroke-width:3.6386;stroke-linecap:square;stroke-linejoin:round;stroke-miterlimit:4;stroke-dasharray:none;stroke-opacity:1" transform="matrix(-.5271 -.3485 -.34791 .528 876.8 -204.5)" d="M-272.1 268.6a33 33 0 0 1 32.7-.4 33 33 0 0 1 17 28.1"/>
        <path style="fill:none;fill-opacity:1;stroke:#9c814c;stroke-width:3.6391;stroke-linecap:square;stroke-linejoin:round;stroke-miterlimit:4;stroke-dasharray:none;stroke-opacity:1" transform="matrix(-.55852 .29537 -.28172 -.56622 876.8 -204.5)" d="M145-337.4a28.4 29.2 0 0 1 28.3-.3 28.4 29.2 0 0 1 14.6 25"/>
      </g>
      <path d="M1194.5-142.4H583" style="fill:none;fill-opacity:1;stroke:#9c814c;stroke-width:2.3;stroke-linecap:square;stroke-linejoin:round;stroke-miterlimit:4;stroke-dasharray:none;stroke-opacity:1" transform="translate(-338.8 164.1)"/>
      <path d="M1197.4-136.8H520.8" style="fill:none;fill-opacity:1;stroke:#9c814c;stroke-width:2.3;stroke-linecap:square;stroke-linejoin:round;stroke-miterlimit:4;stroke-dasharray:none;stroke-opacity:1" transform="translate(-338.8 164.1)"/>
      <g style="fill:none;fill-opacity:1;stroke:#9c814c;stroke-opacity:1">
        <g style="fill:none;fill-opacity:1;stroke:#9c814c;stroke-width:1.3981;stroke-opacity:1">
          <g style="fill:none;fill-opacity:1;stroke:#9c814c;stroke-width:1.3981;stroke-opacity:1">
            <path transform="matrix(-.26458 0 0 .26458 1920.8 -30)" d="M7108 520.8c52.8-45 73-115 56-178.7h.1a175.4 175.4 0 0 0-303.5-69" style="fill:none;fill-opacity:1;stroke:#9c814c;stroke-width:8.69291;stroke-linecap:square;stroke-linejoin:round;stroke-miterlimit:4;stroke-dasharray:none;stroke-opacity:1"/>
          </g>
          <path transform="matrix(-.39424 .5966 .5973 .39378 -244 135.4)" style="fill:none;fill-opacity:1;stroke:#9c814c;stroke-width:3.21563;stroke-linecap:square;stroke-linejoin:round;stroke-miterlimit:4;stroke-dasharray:none;stroke-opacity:1" d="M-272.1 268.6a33 33 0 0 1 32.7-.4 33 33 0 0 1 17 28.1"/>
          <path transform="matrix(.32414 .63732 -.63549 .32877 -244 135.4)" style="fill:none;fill-opacity:1;stroke:#9c814c;stroke-width:3.21568;stroke-linecap:square;stroke-linejoin:round;stroke-miterlimit:4;stroke-dasharray:none;stroke-opacity:1" d="M151.4-340.6a23.6 23.7 0 0 1 23.5-.2 23.6 23.7 0 0 1 12 20.2"/>
        </g>
        <g style="fill:none;fill-opacity:1;stroke:#9c814c;stroke-width:1.582;stroke-opacity:1">
          <g style="fill:none;fill-opacity:1;stroke:#9c814c;stroke-width:1.582;stroke-opacity:1">
            <path transform="matrix(-.26458 0 0 .26458 1920.8 -30)" d="M7091.5 507.9a155 155 0 0 0 49.7-157.5l.4.1a155 155 0 0 0-73.2-95.2l-.9-.5a155.6 155.6 0 0 0-36.9-15h0a154.7 154.7 0 0 0-157.2 49.8" style="fill:none;fill-opacity:1;stroke:#9c814c;stroke-width:8.69291;stroke-linecap:square;stroke-linejoin:round;stroke-miterlimit:4;stroke-dasharray:none;stroke-opacity:1"/>
          </g>
          <path transform="matrix(-.3485 .5271 .528 .34791 -206.6 128.8)" style="fill:none;fill-opacity:1;stroke:#9c814c;stroke-width:3.6386;stroke-linecap:square;stroke-linejoin:round;stroke-miterlimit:4;stroke-dasharray:none;stroke-opacity:1" d="M-272.1 268.6a33 33 0 0 1 32.7-.4 33 33 0 0 1 17 28.1"/>
          <path transform="matrix(.29537 .55852 -.56622 .28172 -206.6 128.8)" style="fill:none;fill-opacity:1;stroke:#9c814c;stroke-width:3.6391;stroke-linecap:square;stroke-linejoin:round;stroke-miterlimit:4;stroke-dasharray:none;stroke-opacity:1" d="M145-337.4a28.4 29.2 0 0 1 28.3-.3 28.4 29.2 0 0 1 14.6 25"/>
        </g>
        <path style="fill:none;fill-opacity:1;stroke:#9c814c;stroke-width:2.3;stroke-linecap:square;stroke-linejoin:round;stroke-miterlimit:4;stroke-dasharray:none;stroke-opacity:1" d="M1901.2 180v524.4" transform="matrix(-1 0 0 1 1920.8 -30)"/>
        <path style="fill:none;fill-opacity:1;stroke:#9c814c;stroke-width:2.3;stroke-linecap:square;stroke-linejoin:round;stroke-miterlimit:4;stroke-dasharray:none;stroke-opacity:1" d="M1895.6 175.5v527" transform="matrix(-1 0 0 1 1920.8 -30)"/>
      </g>
      <g style="fill:none;fill-opacity:1;stroke:#9c814c;stroke-opacity:1">
        <g style="fill:none;fill-opacity:1;stroke:#9c814c;stroke-width:1.3981;stroke-opacity:1">
          <path transform="matrix(.5966 -.39424 .39378 .5973 133.2 -241.8)" style="fill:none;fill-opacity:1;stroke:#9c814c;stroke-width:3.21563;stroke-linecap:square;stroke-linejoin:round;stroke-miterlimit:4;stroke-dasharray:none;stroke-opacity:1" d="M-272.1 268.6a33 33 0 0 1 32.7-.4 33 33 0 0 1 17 28.1"/>
          <path transform="matrix(.63732 .32414 .32877 -.63549 133.2 -241.8)" style="fill:none;fill-opacity:1;stroke:#9c814c;stroke-width:3.21568;stroke-linecap:square;stroke-linejoin:round;stroke-miterlimit:4;stroke-dasharray:none;stroke-opacity:1" d="M151.4-340.6a23.6 23.7 0 0 1 23.5-.2 23.6 23.7 0 0 1 12 20.2"/>
        </g>
        <g style="fill:none;fill-opacity:1;stroke:#9c814c;stroke-width:1.582;stroke-opacity:1">
          <path transform="matrix(.5271 -.3485 .34791 .528 126.6 -204.5)" style="fill:none;fill-opacity:1;stroke:#9c814c;stroke-width:3.6386;stroke-linecap:square;stroke-linejoin:round;stroke-miterlimit:4;stroke-dasharray:none;stroke-opacity:1" d="M-272.1 268.6a33 33 0 0 1 32.7-.4 33 33 0 0 1 17 28.1"/>
          <path transform="matrix(.55852 .29537 .28172 -.56622 126.6 -204.5)" style="fill:none;fill-opacity:1;stroke:#9c814c;stroke-width:3.6391;stroke-linecap:square;stroke-linejoin:round;stroke-miterlimit:4;stroke-dasharray:none;stroke-opacity:1" d="M145-337.4a28.4 29.2 0 0 1 28.3-.3 28.4 29.2 0 0 1 14.6 25"/>
        </g>
        <path style="fill:none;fill-opacity:1;stroke:#9c814c;stroke-width:2.3;stroke-linecap:square;stroke-linejoin:round;stroke-miterlimit:4;stroke-dasharray:none;stroke-opacity:1" d="M1901.2 180v111.7" transform="rotate(-90 945.3 977.6)"/>
        <path style="fill:none;fill-opacity:1;stroke:#9c814c;stroke-width:2.3;stroke-linecap:square;stroke-linejoin:round;stroke-miterlimit:4;stroke-dasharray:none;stroke-opacity:1" d="M1895.6 175.5v82.2" transform="rotate(-90 945.3 977.6)"/>
      </g>
      <g style="fill:none;fill-opacity:1;stroke:#9c814c;stroke-opacity:1">
        <g style="fill:none;fill-opacity:1;stroke:#9c814c;stroke-width:1.3981;stroke-opacity:1">
          <g style="fill:none;fill-opacity:1;stroke:#9c814c;stroke-width:1.3981;stroke-opacity:1">
            <path transform="matrix(-.26458 0 0 -.26458 1920.8 888)" d="M7108 520.8c52.8-45 73-115 56-178.7h.1a175.4 175.4 0 0 0-303.5-69" style="fill:none;fill-opacity:1;stroke:#9c814c;stroke-width:8.69291;stroke-linecap:square;stroke-linejoin:round;stroke-miterlimit:4;stroke-dasharray:none;stroke-opacity:1"/>
          </g>
          <path transform="matrix(-.39424 -.5966 .5973 -.39378 -244 722.6)" style="fill:none;fill-opacity:1;stroke:#9c814c;stroke-width:3.21563;stroke-linecap:square;stroke-linejoin:round;stroke-miterlimit:4;stroke-dasharray:none;stroke-opacity:1" d="M-272.1 268.6a33 33 0 0 1 32.7-.4 33 33 0 0 1 17 28.1"/>
          <path transform="matrix(.32414 -.63732 -.63549 -.32877 -244 722.6)" style="fill:none;fill-opacity:1;stroke:#9c814c;stroke-width:3.21568;stroke-linecap:square;stroke-linejoin:round;stroke-miterlimit:4;stroke-dasharray:none;stroke-opacity:1" d="M151.4-340.6a23.6 23.7 0 0 1 23.5-.2 23.6 23.7 0 0 1 12 20.2"/>
        </g>
        <g style="fill:none;fill-opacity:1;stroke:#9c814c;stroke-width:1.582;stroke-opacity:1">
          <g style="fill:none;fill-opacity:1;stroke:#9c814c;stroke-width:1.582;stroke-opacity:1">
            <path transform="matrix(-.26458 0 0 -.26458 1920.8 888)" d="M7091.5 507.9a155 155 0 0 0 49.7-157.5l.4.1a155 155 0 0 0-73.2-95.2l-.9-.5a155.6 155.6 0 0 0-36.9-15h0a154.7 154.7 0 0 0-157.2 49.8" style="fill:none;fill-opacity:1;stroke:#9c814c;stroke-width:8.69291;stroke-linecap:square;stroke-linejoin:round;stroke-miterlimit:4;stroke-dasharray:none;stroke-opacity:1"/>
          </g>
          <path transform="matrix(-.3485 -.5271 .528 -.34791 -206.6 729.3)" style="fill:none;fill-opacity:1;stroke:#9c814c;stroke-width:3.6386;stroke-linecap:square;stroke-linejoin:round;stroke-miterlimit:4;stroke-dasharray:none;stroke-opacity:1" d="M-272.1 268.6a33 33 0 0 1 32.7-.4 33 33 0 0 1 17 28.1"/>
          <path transform="matrix(.29537 -.55852 -.56622 -.28172 -206.6 729.3)" style="fill:none;fill-opacity:1;stroke:#9c814c;stroke-width:3.6391;stroke-linecap:square;stroke-linejoin:round;stroke-miterlimit:4;stroke-dasharray:none;stroke-opacity:1" d="M145-337.4a28.4 29.2 0 0 1 28.3-.3 28.4 29.2 0 0 1 14.6 25"/>
        </g>
        <path style="fill:none;fill-opacity:1;stroke:#9c814c;stroke-width:2.3;stroke-linecap:square;stroke-linejoin:round;stroke-miterlimit:4;stroke-dasharray:none;stroke-opacity:1" d="M355 546V434.2" transform="translate(-335.4 162.1)"/>
        <path style="fill:none;fill-opacity:1;stroke:#9c814c;stroke-width:2.3;stroke-linecap:square;stroke-linejoin:round;stroke-miterlimit:4;stroke-dasharray:none;stroke-opacity:1" d="M360.5 550.5v-82.2" transform="translate(-335.4 162.1)"/>
        <g style="fill:none;fill-opacity:1;stroke:#9c814c;stroke-width:1.3981;stroke-opacity:1">
          <path transform="matrix(.5966 .39424 .39378 -.5973 133.2 1099.8)" style="fill:none;fill-opacity:1;stroke:#9c814c;stroke-width:3.21563;stroke-linecap:square;stroke-linejoin:round;stroke-miterlimit:4;stroke-dasharray:none;stroke-opacity:1" d="M-272.1 268.6a33 33 0 0 1 32.7-.4 33 33 0 0 1 17 28.1"/>
          <path transform="matrix(.63732 -.32414 .32877 .63549 133.2 1099.8)" style="fill:none;fill-opacity:1;stroke:#9c814c;stroke-width:3.21568;stroke-linecap:square;stroke-linejoin:round;stroke-miterlimit:4;stroke-dasharray:none;stroke-opacity:1" d="M151.4-340.6a23.6 23.7 0 0 1 23.5-.2 23.6 23.7 0 0 1 12 20.2"/>
        </g>
        <g style="fill:none;fill-opacity:1;stroke:#9c814c;stroke-width:1.582;stroke-opacity:1">
          <path transform="matrix(.5271 .3485 .34791 -.528 126.6 1062.5)" style="fill:none;fill-opacity:1;stroke:#9c814c;stroke-width:3.6386;stroke-linecap:square;stroke-linejoin:round;stroke-miterlimit:4;stroke-dasharray:none;stroke-opacity:1" d="M-272.1 268.6a33 33 0 0 1 32.7-.4 33 33 0 0 1 17 28.1"/>
          <path transform="matrix(.55852 -.29537 .28172 .56622 126.6 1062.5)" style="fill:none;fill-opacity:1;stroke:#9c814c;stroke-width:3.6391;stroke-linecap:square;stroke-linejoin:round;stroke-miterlimit:4;stroke-dasharray:none;stroke-opacity:1" d="M145-337.4a28.4 29.2 0 0 1 28.3-.3 28.4 29.2 0 0 1 14.6 25"/>
        </g>
        <path style="fill:none;fill-opacity:1;stroke:#9c814c;stroke-width:2.3;stroke-linecap:square;stroke-linejoin:round;stroke-miterlimit:4;stroke-dasharray:none;stroke-opacity:1" d="M483.1 674.2H1184" transform="translate(-335.4 162.1)"/>
        <path style="fill:none;fill-opacity:1;stroke:#9c814c;stroke-width:2.3;stroke-linecap:square;stroke-linejoin:round;stroke-miterlimit:4;stroke-dasharray:none;stroke-opacity:1" d="M478.7 668.7h82.2" transform="translate(-335.4 162.1)"/>
      </g>
      <g style="fill:none;fill-opacity:1;stroke:#9c814c;stroke-opacity:1">
        <g style="fill:none;fill-opacity:1;stroke:#9c814c;stroke-width:1.3981;stroke-opacity:1">
          <g style="fill:none;fill-opacity:1;stroke:#9c814c;stroke-width:1.3981;stroke-opacity:1">
            <path transform="matrix(.26458 0 0 -.26458 -917.4 888)" d="M7108 520.8c52.8-45 73-115 56-178.7h.1a175.4 175.4 0 0 0-303.5-69" style="fill:none;fill-opacity:1;stroke:#9c814c;stroke-width:8.69291;stroke-linecap:square;stroke-linejoin:round;stroke-miterlimit:4;stroke-dasharray:none;stroke-opacity:1"/>
          </g>
          <path transform="matrix(.39424 -.5966 -.5973 -.39378 1247.3 722.6)" style="fill:none;fill-opacity:1;stroke:#9c814c;stroke-width:3.21563;stroke-linecap:square;stroke-linejoin:round;stroke-miterlimit:4;stroke-dasharray:none;stroke-opacity:1" d="M-272.1 268.6a33 33 0 0 1 32.7-.4 33 33 0 0 1 17 28.1"/>
          <path transform="matrix(-.32414 -.63732 .63549 -.32877 1247.3 722.6)" style="fill:none;fill-opacity:1;stroke:#9c814c;stroke-width:3.21568;stroke-linecap:square;stroke-linejoin:round;stroke-miterlimit:4;stroke-dasharray:none;stroke-opacity:1" d="M151.4-340.6a23.6 23.7 0 0 1 23.5-.2 23.6 23.7 0 0 1 12 20.2"/>
        </g>
        <g style="fill:none;fill-opacity:1;stroke:#9c814c;stroke-width:1.582;stroke-opacity:1">
          <g style="fill:none;fill-opacity:1;stroke:#9c814c;stroke-width:1.582;stroke-opacity:1">
            <path transform="matrix(.26458 0 0 -.26458 -917.4 888)" d="M7091.5 507.9a155 155 0 0 0 49.7-157.5l.4.1a155 155 0 0 0-73.2-95.2l-.9-.5a155.6 155.6 0 0 0-36.9-15h0a154.7 154.7 0 0 0-157.2 49.8" style="fill:none;fill-opacity:1;stroke:#9c814c;stroke-width:8.69291;stroke-linecap:square;stroke-linejoin:round;stroke-miterlimit:4;stroke-dasharray:none;stroke-opacity:1"/>
          </g>
          <path transform="matrix(.3485 -.5271 -.528 -.34791 1210 729.3)" style="fill:none;fill-opacity:1;stroke:#9c814c;stroke-width:3.6386;stroke-linecap:square;stroke-linejoin:round;stroke-miterlimit:4;stroke-dasharray:none;stroke-opacity:1" d="M-272.1 268.6a33 33 0 0 1 32.7-.4 33 33 0 0 1 17 28.1"/>
          <path transform="matrix(-.29537 -.55852 .56622 -.28172 1210 729.3)" style="fill:none;fill-opacity:1;stroke:#9c814c;stroke-width:3.6391;stroke-linecap:square;stroke-linejoin:round;stroke-miterlimit:4;stroke-dasharray:none;stroke-opacity:1" d="M145-337.4a28.4 29.2 0 0 1 28.3-.3 28.4 29.2 0 0 1 14.6 25"/>
        </g>
        <path style="fill:none;fill-opacity:1;stroke:#9c814c;stroke-width:2.3;stroke-linecap:square;stroke-linejoin:round;stroke-miterlimit:4;stroke-dasharray:none;stroke-opacity:1" d="M1901.2 180v491.3" transform="matrix(1 0 0 -1 -917.4 888)"/>
        <path style="fill:none;fill-opacity:1;stroke:#9c814c;stroke-width:2.3;stroke-linecap:square;stroke-linejoin:round;stroke-miterlimit:4;stroke-dasharray:none;stroke-opacity:1" d="M1895.6 175.5v500.2" transform="matrix(1 0 0 -1 -917.4 888)"/>
      </g>
      <g style="fill:none;fill-opacity:1;stroke:#9c814c;stroke-width:1.3981;stroke-opacity:1">
        <path style="fill:none;fill-opacity:1;stroke:#9c814c;stroke-width:3.21563;stroke-linecap:square;stroke-linejoin:round;stroke-miterlimit:4;stroke-dasharray:none;stroke-opacity:1" transform="matrix(-.5966 .39424 -.39378 -.5973 870.2 1099.8)" d="M-272.1 268.6a33 33 0 0 1 32.7-.4 33 33 0 0 1 17 28.1"/>
        <path style="fill:none;fill-opacity:1;stroke:#9c814c;stroke-width:3.21568;stroke-linecap:square;stroke-linejoin:round;stroke-miterlimit:4;stroke-dasharray:none;stroke-opacity:1" transform="matrix(-.63732 -.32414 -.32877 .63549 870.2 1099.8)" d="M151.4-340.6a23.6 23.7 0 0 1 23.5-.2 23.6 23.7 0 0 1 12 20.2"/>
      </g>
      <g style="fill:none;fill-opacity:1;stroke:#9c814c;stroke-width:1.582;stroke-opacity:1">
        <path style="fill:none;fill-opacity:1;stroke:#9c814c;stroke-width:3.6386;stroke-linecap:square;stroke-linejoin:round;stroke-miterlimit:4;stroke-dasharray:none;stroke-opacity:1" transform="matrix(-.5271 .3485 -.34791 -.528 876.8 1062.5)" d="M-272.1 268.6a33 33 0 0 1 32.7-.4 33 33 0 0 1 17 28.1"/>
        <path style="fill:none;fill-opacity:1;stroke:#9c814c;stroke-width:3.6391;stroke-linecap:square;stroke-linejoin:round;stroke-miterlimit:4;stroke-dasharray:none;stroke-opacity:1" transform="matrix(-.55852 -.29537 -.28172 .56622 876.8 1062.5)" d="M145-337.4a28.4 29.2 0 0 1 28.3-.3 28.4 29.2 0 0 1 14.6 25"/>
      </g>
      <path d="M1193.7 672.2h-111.8" style="fill:none;fill-opacity:1;stroke:#9c814c;stroke-width:2.3;stroke-linecap:square;stroke-linejoin:round;stroke-miterlimit:4;stroke-dasharray:none;stroke-opacity:1" transform="translate(-338.8 164.1)"/>
      <path d="M1196.6 666.7H543.3" style="fill:none;fill-opacity:1;stroke:#9c814c;stroke-width:2.3;stroke-linecap:square;stroke-linejoin:round;stroke-miterlimit:4;stroke-dasharray:none;stroke-opacity:1" transform="translate(-338.8 164.1)"/>
    </g>
  </g>
</svg>
