<svg width="608.3" height="880.8" viewBox="0 0 160.9 233" xmlns="http://www.w3.org/2000/svg"><defs><clipPath clipPathUnits="userSpaceOnUse" id="a"><rect style="fill:#f4f0de;fill-opacity:1;stroke:none;stroke-width:7.99999;stroke-linecap:square;stroke-linejoin:round" width="147.5" height="219.2" x="95.9" y="-379" rx="20.8" ry="20.8"/></clipPath></defs><g transform="translate(-30.2 -69.7)"><rect style="fill:#3a3122;fill-opacity:1;stroke:none;stroke-width:.8;stroke-linecap:square;stroke-linejoin:round;stroke-miterlimit:4;stroke-dasharray:none;stroke-opacity:1" width="156.2" height="227.3" x="35" y="75.5" rx="22.5" ry="22.5"/><rect style="fill:#fff;fill-opacity:1;stroke:#f4f0de;stroke-width:.8;stroke-linecap:square;stroke-linejoin:round;stroke-miterlimit:4;stroke-dasharray:none;stroke-opacity:1" width="156.2" height="227.3" x="31.8" y="71.3" rx="22.5" ry="22.5"/><g transform="translate(-59.8 454.3)" clip-path="url(#a)"><rect ry="0" rx="0" y="-384" x="93" height="248" width="166.8" style="fill:#f4f0de;fill-opacity:1;stroke:none;stroke-width:2.3;stroke-linecap:square;stroke-linejoin:round;stroke-miterlimit:4;stroke-dasharray:none;stroke-opacity:1"/><rect transform="rotate(45)" ry="0" rx="0" y="-446.8" x="-232.6" height="320.3" width="215.4" style="fill:#f7f5ed;fill-opacity:1;stroke:none;stroke-width:2.3;stroke-linecap:square;stroke-linejoin:round;stroke-miterlimit:4;stroke-dasharray:none;stroke-opacity:1"/></g><rect style="fill:#f6f2e1;fill-opacity:1;stroke:#f7f5ed;stroke-width:3.1;stroke-linecap:square;stroke-linejoin:round;stroke-miterlimit:4;stroke-dasharray:none;stroke-opacity:1" width="156.2" height="227.3" x="31.8" y="71.3" rx="22.5" ry="22.5"/><path style="fill:none;fill-opacity:1;stroke:#cbbf8d;stroke-width:3.2;stroke-linecap:square;stroke-linejoin:round;stroke-miterlimit:4;stroke-dasharray:none;stroke-opacity:1" d="M188 93.7v182.4c0 12.4-10 22.4-22.5 22.4H54.2c-12.4 0-22.4-10-22.4-22.4"/><g style="stroke-width:.983245"><g style="fill:none;fill-opacity:1;stroke:#dcd5b8;stroke-width:1.71499;stroke-miterlimit:4;stroke-dasharray:none;stroke-opacity:1"><g style="fill:none;fill-opacity:1;stroke:#dcd5b8;stroke-width:5.65179;stroke-miterlimit:4;stroke-dasharray:none;stroke-opacity:1"><g style="fill:none;fill-opacity:1;stroke:#dcd5b8;stroke-width:5.65179;stroke-miterlimit:4;stroke-dasharray:none;stroke-opacity:1"><path transform="matrix(-.07189 0 0 -.0721 554.7 304.6)" d="M7108 520.8c52.8-45 73-115 56-178.7h.1a175.4 175.4 0 0 0-303.5-69" style="fill:none;fill-opacity:1;stroke:#dcd5b8;stroke-width:15.2787;stroke-linecap:square;stroke-linejoin:round;stroke-miterlimit:4;stroke-dasharray:none;stroke-opacity:1"/></g><path transform="scale(-.19446 -.1948) rotate(56.6 1323.8 -506)" style="fill:none;fill-opacity:1;stroke:#dcd5b8;stroke-width:5.65179;stroke-linecap:square;stroke-linejoin:round;stroke-miterlimit:4;stroke-dasharray:none;stroke-opacity:1" d="M-272.1 268.6a33 33 0 0 1 32.7-.4 33 33 0 0 1 17 28.1"/><path transform="matrix(.08807 -.17368 -.17267 -.0896 -33.5 259.5)" style="fill:none;fill-opacity:1;stroke:#dcd5b8;stroke-width:5.65188;stroke-linecap:square;stroke-linejoin:round;stroke-miterlimit:4;stroke-dasharray:none;stroke-opacity:1" d="M151.4-340.6a23.6 23.7 0 0 1 23.5-.2 23.6 23.7 0 0 1 12 20.2"/></g><g style="fill:none;fill-opacity:1;stroke:#dcd5b8;stroke-width:6.3952;stroke-miterlimit:4;stroke-dasharray:none;stroke-opacity:1"><g style="fill:none;fill-opacity:1;stroke:#dcd5b8;stroke-width:6.3952;stroke-miterlimit:4;stroke-dasharray:none;stroke-opacity:1"><path transform="matrix(-.07189 0 0 -.0721 554.7 304.6)" d="M7091.5 507.9a155 155 0 0 0 49.7-157.5l.4.1a155 155 0 0 0-73.2-95.2l-.9-.5a155.6 155.6 0 0 0-36.9-15h0a154.7 154.7 0 0 0-157.2 49.8" style="fill:none;fill-opacity:1;stroke:#dcd5b8;stroke-width:15.2787;stroke-linecap:square;stroke-linejoin:round;stroke-miterlimit:4;stroke-dasharray:none;stroke-opacity:1"/></g><path transform="matrix(-.0947 -.14364 .14346 -.09481 -23.4 261.3)" style="fill:none;fill-opacity:1;stroke:#dcd5b8;stroke-width:6.3952;stroke-linecap:square;stroke-linejoin:round;stroke-miterlimit:4;stroke-dasharray:none;stroke-opacity:1" d="M-272.1 268.6a33 33 0 0 1 32.7-.4 33 33 0 0 1 17 28.1"/><path transform="matrix(.08025 -.1522 -.15385 -.07677 -23.4 261.3)" style="fill:none;fill-opacity:1;stroke:#dcd5b8;stroke-width:6.39608;stroke-linecap:square;stroke-linejoin:round;stroke-miterlimit:4;stroke-dasharray:none;stroke-opacity:1" d="M145-337.4a28.4 29.2 0 0 1 28.3-.3 28.4 29.2 0 0 1 14.6 25"/></g><path style="fill:none;fill-opacity:1;stroke:#dcd5b8;stroke-width:1.71499;stroke-linecap:square;stroke-linejoin:round;stroke-miterlimit:4;stroke-dasharray:none;stroke-opacity:1" d="M591.6 281.6V234" transform="matrix(.6411 0 0 .64171 -341.2 74.8)"/><path style="fill:none;fill-opacity:1;stroke:#dcd5b8;stroke-width:1.71499;stroke-linecap:square;stroke-linejoin:round;stroke-miterlimit:4;stroke-dasharray:none;stroke-opacity:1" d="M593.9 283.5v-35" transform="matrix(.6411 0 0 .64171 -341.2 74.8)"/><g style="fill:none;fill-opacity:1;stroke:#dcd5b8;stroke-width:5.65179;stroke-miterlimit:4;stroke-dasharray:none;stroke-opacity:1"><path transform="matrix(.1621 .10743 .107 -.16277 69 362.3)" style="fill:none;fill-opacity:1;stroke:#dcd5b8;stroke-width:5.65179;stroke-linecap:square;stroke-linejoin:round;stroke-miterlimit:4;stroke-dasharray:none;stroke-opacity:1" d="M-272.1 268.6a33 33 0 0 1 32.7-.4 33 33 0 0 1 17 28.1"/><path transform="matrix(.17317 -.08833 .08933 .17318 69 362.3)" style="fill:none;fill-opacity:1;stroke:#dcd5b8;stroke-width:5.65188;stroke-linecap:square;stroke-linejoin:round;stroke-miterlimit:4;stroke-dasharray:none;stroke-opacity:1" d="M151.4-340.6a23.6 23.7 0 0 1 23.5-.2 23.6 23.7 0 0 1 12 20.2"/></g><g style="fill:none;fill-opacity:1;stroke:#dcd5b8;stroke-width:6.3952;stroke-miterlimit:4;stroke-dasharray:none;stroke-opacity:1"><path transform="scale(.1716 -.1724) rotate(-33.4 -3205.3 -1673)" style="fill:none;fill-opacity:1;stroke:#dcd5b8;stroke-width:6.3952;stroke-linecap:square;stroke-linejoin:round;stroke-miterlimit:4;stroke-dasharray:none;stroke-opacity:1" d="M-272.1 268.6a33 33 0 0 1 32.7-.4 33 33 0 0 1 17 28.1"/><path transform="matrix(.15176 -.08049 .07655 .1543 67.2 352.1)" style="fill:none;fill-opacity:1;stroke:#dcd5b8;stroke-width:6.39608;stroke-linecap:square;stroke-linejoin:round;stroke-miterlimit:4;stroke-dasharray:none;stroke-opacity:1" d="M145-337.4a28.4 29.2 0 0 1 28.3-.3 28.4 29.2 0 0 1 14.6 25"/></g><path style="fill:none;fill-opacity:1;stroke:#dcd5b8;stroke-width:1.71499;stroke-linecap:square;stroke-linejoin:round;stroke-miterlimit:4;stroke-dasharray:none;stroke-opacity:1" d="M644 333.7h42.4" transform="matrix(.6411 0 0 .64171 -341.2 74.8)"/></g><path style="fill:none;fill-opacity:1;stroke:#dcd5b8;stroke-width:1.08157;stroke-linecap:square;stroke-linejoin:round;stroke-miterlimit:4;stroke-dasharray:none;stroke-opacity:1" d="M608 348.6h30" transform="translate(-545.5 -64) scale(1.01704)"/></g><g style="stroke-width:.983245"><g style="fill:none;fill-opacity:1;stroke:#dcd5b8;stroke-width:1.71499;stroke-miterlimit:4;stroke-dasharray:none;stroke-opacity:1"><g style="fill:none;fill-opacity:1;stroke:#dcd5b8;stroke-width:5.65179;stroke-miterlimit:4;stroke-dasharray:none;stroke-opacity:1"><g style="fill:none;fill-opacity:1;stroke:#dcd5b8;stroke-width:5.65179;stroke-miterlimit:4;stroke-dasharray:none;stroke-opacity:1"><path transform="matrix(.07189 0 0 -.0721 -336.7 304.6)" d="M7108 520.8c52.8-45 73-115 56-178.7h.1a175.4 175.4 0 0 0-303.5-69" style="fill:none;fill-opacity:1;stroke:#dcd5b8;stroke-width:15.2787;stroke-linecap:square;stroke-linejoin:round;stroke-miterlimit:4;stroke-dasharray:none;stroke-opacity:1"/></g><path transform="scale(.19446 -.1948) rotate(56.6 1884.3 535.6)" style="fill:none;fill-opacity:1;stroke:#dcd5b8;stroke-width:5.65179;stroke-linecap:square;stroke-linejoin:round;stroke-miterlimit:4;stroke-dasharray:none;stroke-opacity:1" d="M-272.1 268.6a33 33 0 0 1 32.7-.4 33 33 0 0 1 17 28.1"/><path transform="matrix(-.08807 -.17368 .17267 -.0896 251.5 259.5)" style="fill:none;fill-opacity:1;stroke:#dcd5b8;stroke-width:5.65188;stroke-linecap:square;stroke-linejoin:round;stroke-miterlimit:4;stroke-dasharray:none;stroke-opacity:1" d="M151.4-340.6a23.6 23.7 0 0 1 23.5-.2 23.6 23.7 0 0 1 12 20.2"/></g><g style="fill:none;fill-opacity:1;stroke:#dcd5b8;stroke-width:6.3952;stroke-miterlimit:4;stroke-dasharray:none;stroke-opacity:1"><g style="fill:none;fill-opacity:1;stroke:#dcd5b8;stroke-width:6.3952;stroke-miterlimit:4;stroke-dasharray:none;stroke-opacity:1"><path transform="matrix(.07189 0 0 -.0721 -336.7 304.6)" d="M7091.5 507.9a155 155 0 0 0 49.7-157.5l.4.1a155 155 0 0 0-73.2-95.2l-.9-.5a155.6 155.6 0 0 0-36.9-15h0a154.7 154.7 0 0 0-157.2 49.8" style="fill:none;fill-opacity:1;stroke:#dcd5b8;stroke-width:15.2787;stroke-linecap:square;stroke-linejoin:round;stroke-miterlimit:4;stroke-dasharray:none;stroke-opacity:1"/></g><path transform="matrix(.0947 -.14364 -.14346 -.09481 241.4 261.3)" style="fill:none;fill-opacity:1;stroke:#dcd5b8;stroke-width:6.3952;stroke-linecap:square;stroke-linejoin:round;stroke-miterlimit:4;stroke-dasharray:none;stroke-opacity:1" d="M-272.1 268.6a33 33 0 0 1 32.7-.4 33 33 0 0 1 17 28.1"/><path transform="matrix(-.08025 -.1522 .15385 -.07677 241.4 261.3)" style="fill:none;fill-opacity:1;stroke:#dcd5b8;stroke-width:6.39608;stroke-linecap:square;stroke-linejoin:round;stroke-miterlimit:4;stroke-dasharray:none;stroke-opacity:1" d="M145-337.4a28.4 29.2 0 0 1 28.3-.3 28.4 29.2 0 0 1 14.6 25"/></g><path style="fill:none;fill-opacity:1;stroke:#dcd5b8;stroke-width:1.71499;stroke-linecap:square;stroke-linejoin:round;stroke-miterlimit:4;stroke-dasharray:none;stroke-opacity:1" d="M591.6 281.6V234" transform="matrix(-.6411 0 0 .64171 559.1 74.8)"/><path style="fill:none;fill-opacity:1;stroke:#dcd5b8;stroke-width:1.71499;stroke-linecap:square;stroke-linejoin:round;stroke-miterlimit:4;stroke-dasharray:none;stroke-opacity:1" d="M593.9 283.5v-35" transform="matrix(-.6411 0 0 .64171 559.1 74.8)"/><g style="fill:none;fill-opacity:1;stroke:#dcd5b8;stroke-width:5.65179;stroke-miterlimit:4;stroke-dasharray:none;stroke-opacity:1"><path transform="matrix(-.1621 .10743 -.107 -.16277 149 362.3)" style="fill:none;fill-opacity:1;stroke:#dcd5b8;stroke-width:5.65179;stroke-linecap:square;stroke-linejoin:round;stroke-miterlimit:4;stroke-dasharray:none;stroke-opacity:1" d="M-272.1 268.6a33 33 0 0 1 32.7-.4 33 33 0 0 1 17 28.1"/><path transform="matrix(-.17317 -.08833 -.08933 .17318 149 362.3)" style="fill:none;fill-opacity:1;stroke:#dcd5b8;stroke-width:5.65188;stroke-linecap:square;stroke-linejoin:round;stroke-miterlimit:4;stroke-dasharray:none;stroke-opacity:1" d="M151.4-340.6a23.6 23.7 0 0 1 23.5-.2 23.6 23.7 0 0 1 12 20.2"/></g><g style="fill:none;fill-opacity:1;stroke:#dcd5b8;stroke-width:6.3952;stroke-miterlimit:4;stroke-dasharray:none;stroke-opacity:1"><path transform="scale(-.1716 -.1724) rotate(-33.4 -3840.4 442.2)" style="fill:none;fill-opacity:1;stroke:#dcd5b8;stroke-width:6.3952;stroke-linecap:square;stroke-linejoin:round;stroke-miterlimit:4;stroke-dasharray:none;stroke-opacity:1" d="M-272.1 268.6a33 33 0 0 1 32.7-.4 33 33 0 0 1 17 28.1"/><path transform="matrix(-.15176 -.08049 -.07655 .1543 150.8 352.1)" style="fill:none;fill-opacity:1;stroke:#dcd5b8;stroke-width:6.39608;stroke-linecap:square;stroke-linejoin:round;stroke-miterlimit:4;stroke-dasharray:none;stroke-opacity:1" d="M145-337.4a28.4 29.2 0 0 1 28.3-.3 28.4 29.2 0 0 1 14.6 25"/></g><path style="fill:none;fill-opacity:1;stroke:#dcd5b8;stroke-width:1.71499;stroke-linecap:square;stroke-linejoin:round;stroke-miterlimit:4;stroke-dasharray:none;stroke-opacity:1" d="M644 333.7h79.5" transform="matrix(-.6411 0 0 .64171 559.1 74.8)"/></g><path style="fill:none;fill-opacity:1;stroke:#dcd5b8;stroke-width:1.08157;stroke-linecap:square;stroke-linejoin:round;stroke-miterlimit:4;stroke-dasharray:none;stroke-opacity:1" d="M608 348.6h40.4" transform="matrix(-1.01704 0 0 1.01704 763.4 -64)"/></g><g style="stroke-width:.983245"><g style="fill:none;fill-opacity:1;stroke:#dcd5b8;stroke-width:1.71499;stroke-miterlimit:4;stroke-dasharray:none;stroke-opacity:1"><g style="fill:none;fill-opacity:1;stroke:#dcd5b8;stroke-width:5.65179;stroke-miterlimit:4;stroke-dasharray:none;stroke-opacity:1"><g style="fill:none;fill-opacity:1;stroke:#dcd5b8;stroke-width:5.65179;stroke-miterlimit:4;stroke-dasharray:none;stroke-opacity:1"><path transform="matrix(-.07189 0 0 .0721 554.6 64.1)" d="M7108 520.8c52.8-45 73-115 56-178.7h.1a175.4 175.4 0 0 0-303.5-69" style="fill:none;fill-opacity:1;stroke:#dcd5b8;stroke-width:15.2787;stroke-linecap:square;stroke-linejoin:round;stroke-miterlimit:4;stroke-dasharray:none;stroke-opacity:1"/></g><path transform="scale(-.19446 .1948) rotate(56.6 -434.6 440.6)" style="fill:none;fill-opacity:1;stroke:#dcd5b8;stroke-width:5.65179;stroke-linecap:square;stroke-linejoin:round;stroke-miterlimit:4;stroke-dasharray:none;stroke-opacity:1" d="M-272.1 268.6a33 33 0 0 1 32.7-.4 33 33 0 0 1 17 28.1"/><path transform="matrix(.08807 .17368 -.17267 .0896 -33.6 109.2)" style="fill:none;fill-opacity:1;stroke:#dcd5b8;stroke-width:5.65188;stroke-linecap:square;stroke-linejoin:round;stroke-miterlimit:4;stroke-dasharray:none;stroke-opacity:1" d="M151.4-340.6a23.6 23.7 0 0 1 23.5-.2 23.6 23.7 0 0 1 12 20.2"/></g><g style="fill:none;fill-opacity:1;stroke:#dcd5b8;stroke-width:6.3952;stroke-miterlimit:4;stroke-dasharray:none;stroke-opacity:1"><g style="fill:none;fill-opacity:1;stroke:#dcd5b8;stroke-width:6.3952;stroke-miterlimit:4;stroke-dasharray:none;stroke-opacity:1"><path transform="matrix(-.07189 0 0 .0721 554.6 64.1)" d="M7091.5 507.9a155 155 0 0 0 49.7-157.5l.4.1a155 155 0 0 0-73.2-95.2l-.9-.5a155.6 155.6 0 0 0-36.9-15h0a154.7 154.7 0 0 0-157.2 49.8" style="fill:none;fill-opacity:1;stroke:#dcd5b8;stroke-width:15.2787;stroke-linecap:square;stroke-linejoin:round;stroke-miterlimit:4;stroke-dasharray:none;stroke-opacity:1"/></g><path transform="matrix(-.0947 .14364 .14346 .09481 -23.4 107.4)" style="fill:none;fill-opacity:1;stroke:#dcd5b8;stroke-width:6.3952;stroke-linecap:square;stroke-linejoin:round;stroke-miterlimit:4;stroke-dasharray:none;stroke-opacity:1" d="M-272.1 268.6a33 33 0 0 1 32.7-.4 33 33 0 0 1 17 28.1"/><path transform="matrix(.08025 .1522 -.15385 .07677 -23.4 107.4)" style="fill:none;fill-opacity:1;stroke:#dcd5b8;stroke-width:6.39608;stroke-linecap:square;stroke-linejoin:round;stroke-miterlimit:4;stroke-dasharray:none;stroke-opacity:1" d="M145-337.4a28.4 29.2 0 0 1 28.3-.3 28.4 29.2 0 0 1 14.6 25"/></g><path style="fill:none;fill-opacity:1;stroke:#dcd5b8;stroke-width:1.71499;stroke-linecap:square;stroke-linejoin:round;stroke-miterlimit:4;stroke-dasharray:none;stroke-opacity:1" d="M591.6 281.6v-181" transform="matrix(.6411 0 0 -.64171 -341.2 293.9)"/><path style="fill:none;fill-opacity:1;stroke:#dcd5b8;stroke-width:1.71499;stroke-linecap:square;stroke-linejoin:round;stroke-miterlimit:4;stroke-dasharray:none;stroke-opacity:1" d="M593.9 283.5V85.3" transform="matrix(.6411 0 0 -.64171 -341.2 293.9)"/><g style="fill:none;fill-opacity:1;stroke:#dcd5b8;stroke-width:5.65179;stroke-miterlimit:4;stroke-dasharray:none;stroke-opacity:1"><path transform="matrix(.1621 -.10743 .107 .16277 69 6.4)" style="fill:none;fill-opacity:1;stroke:#dcd5b8;stroke-width:5.65179;stroke-linecap:square;stroke-linejoin:round;stroke-miterlimit:4;stroke-dasharray:none;stroke-opacity:1" d="M-272.1 268.6a33 33 0 0 1 32.7-.4 33 33 0 0 1 17 28.1"/><path transform="matrix(.17317 .08833 .08933 -.17318 69 6.4)" style="fill:none;fill-opacity:1;stroke:#dcd5b8;stroke-width:5.65188;stroke-linecap:square;stroke-linejoin:round;stroke-miterlimit:4;stroke-dasharray:none;stroke-opacity:1" d="M151.4-340.6a23.6 23.7 0 0 1 23.5-.2 23.6 23.7 0 0 1 12 20.2"/></g><g style="fill:none;fill-opacity:1;stroke:#dcd5b8;stroke-width:6.3952;stroke-miterlimit:4;stroke-dasharray:none;stroke-opacity:1"><path transform="scale(.1716 .1724) rotate(-33.4 355.6 -603.2)" style="fill:none;fill-opacity:1;stroke:#dcd5b8;stroke-width:6.3952;stroke-linecap:square;stroke-linejoin:round;stroke-miterlimit:4;stroke-dasharray:none;stroke-opacity:1" d="M-272.1 268.6a33 33 0 0 1 32.7-.4 33 33 0 0 1 17 28.1"/><path transform="matrix(.15176 .08049 .07655 -.1543 67.1 16.6)" style="fill:none;fill-opacity:1;stroke:#dcd5b8;stroke-width:6.39608;stroke-linecap:square;stroke-linejoin:round;stroke-miterlimit:4;stroke-dasharray:none;stroke-opacity:1" d="M145-337.4a28.4 29.2 0 0 1 28.3-.3 28.4 29.2 0 0 1 14.6 25"/></g><path style="fill:none;fill-opacity:1;stroke:#dcd5b8;stroke-width:1.71499;stroke-linecap:square;stroke-linejoin:round;stroke-miterlimit:4;stroke-dasharray:none;stroke-opacity:1" d="M644 333.7h34.8" transform="matrix(.6411 0 0 -.64171 -341.2 293.9)"/></g><path style="fill:none;fill-opacity:1;stroke:#dcd5b8;stroke-width:1.08157;stroke-linecap:square;stroke-linejoin:round;stroke-miterlimit:4;stroke-dasharray:none;stroke-opacity:1" d="M608 348.6h30" transform="matrix(1.01704 0 0 -1.01704 -545.5 432.7)"/></g><g style="stroke-width:.983245"><g style="fill:none;fill-opacity:1;stroke:#dcd5b8;stroke-width:1.71499;stroke-miterlimit:4;stroke-dasharray:none;stroke-opacity:1"><g style="fill:none;fill-opacity:1;stroke:#dcd5b8;stroke-width:5.65179;stroke-miterlimit:4;stroke-dasharray:none;stroke-opacity:1"><g style="fill:none;fill-opacity:1;stroke:#dcd5b8;stroke-width:5.65179;stroke-miterlimit:4;stroke-dasharray:none;stroke-opacity:1"><path transform="matrix(.07189 0 0 .0721 -336.7 64.1)" d="M7108 520.8c52.8-45 73-115 56-178.7h.1a175.4 175.4 0 0 0-303.5-69" style="fill:none;fill-opacity:1;stroke:#dcd5b8;stroke-width:15.2787;stroke-linecap:square;stroke-linejoin:round;stroke-miterlimit:4;stroke-dasharray:none;stroke-opacity:1"/></g><path transform="scale(.19446 .1948) rotate(56.6 125.8 1482)" style="fill:none;fill-opacity:1;stroke:#dcd5b8;stroke-width:5.65179;stroke-linecap:square;stroke-linejoin:round;stroke-miterlimit:4;stroke-dasharray:none;stroke-opacity:1" d="M-272.1 268.6a33 33 0 0 1 32.7-.4 33 33 0 0 1 17 28.1"/><path transform="matrix(-.08807 .17368 .17267 .0896 251.5 109.2)" style="fill:none;fill-opacity:1;stroke:#dcd5b8;stroke-width:5.65188;stroke-linecap:square;stroke-linejoin:round;stroke-miterlimit:4;stroke-dasharray:none;stroke-opacity:1" d="M151.4-340.6a23.6 23.7 0 0 1 23.5-.2 23.6 23.7 0 0 1 12 20.2"/></g><g style="fill:none;fill-opacity:1;stroke:#dcd5b8;stroke-width:6.3952;stroke-miterlimit:4;stroke-dasharray:none;stroke-opacity:1"><g style="fill:none;fill-opacity:1;stroke:#dcd5b8;stroke-width:6.3952;stroke-miterlimit:4;stroke-dasharray:none;stroke-opacity:1"><path transform="matrix(.07189 0 0 .0721 -336.7 64.1)" d="M7091.5 507.9a155 155 0 0 0 49.7-157.5l.4.1a155 155 0 0 0-73.2-95.2l-.9-.5a155.6 155.6 0 0 0-36.9-15h0a154.7 154.7 0 0 0-157.2 49.8" style="fill:none;fill-opacity:1;stroke:#dcd5b8;stroke-width:15.2787;stroke-linecap:square;stroke-linejoin:round;stroke-miterlimit:4;stroke-dasharray:none;stroke-opacity:1"/></g><path transform="matrix(.0947 .14364 -.14346 .09481 241.4 107.4)" style="fill:none;fill-opacity:1;stroke:#dcd5b8;stroke-width:6.3952;stroke-linecap:square;stroke-linejoin:round;stroke-miterlimit:4;stroke-dasharray:none;stroke-opacity:1" d="M-272.1 268.6a33 33 0 0 1 32.7-.4 33 33 0 0 1 17 28.1"/><path transform="matrix(-.08025 .1522 .15385 .07677 241.4 107.4)" style="fill:none;fill-opacity:1;stroke:#dcd5b8;stroke-width:6.39608;stroke-linecap:square;stroke-linejoin:round;stroke-miterlimit:4;stroke-dasharray:none;stroke-opacity:1" d="M145-337.4a28.4 29.2 0 0 1 28.3-.3 28.4 29.2 0 0 1 14.6 25"/></g><path style="fill:none;fill-opacity:1;stroke:#dcd5b8;stroke-width:1.71499;stroke-linecap:square;stroke-linejoin:round;stroke-miterlimit:4;stroke-dasharray:none;stroke-opacity:1" d="M591.6 281.6V97.2" transform="matrix(-.6411 0 0 -.64171 559.1 293.9)"/><path style="fill:none;fill-opacity:1;stroke:#dcd5b8;stroke-width:1.71499;stroke-linecap:square;stroke-linejoin:round;stroke-miterlimit:4;stroke-dasharray:none;stroke-opacity:1" d="M593.9 283.5V80.8" transform="matrix(-.6411 0 0 -.64171 559.1 293.9)"/><g style="fill:none;fill-opacity:1;stroke:#dcd5b8;stroke-width:5.65179;stroke-miterlimit:4;stroke-dasharray:none;stroke-opacity:1"><path transform="matrix(-.1621 -.10743 -.107 .16277 149 6.4)" style="fill:none;fill-opacity:1;stroke:#dcd5b8;stroke-width:5.65179;stroke-linecap:square;stroke-linejoin:round;stroke-miterlimit:4;stroke-dasharray:none;stroke-opacity:1" d="M-272.1 268.6a33 33 0 0 1 32.7-.4 33 33 0 0 1 17 28.1"/><path transform="matrix(-.17317 .08833 -.08933 -.17318 149 6.4)" style="fill:none;fill-opacity:1;stroke:#dcd5b8;stroke-width:5.65188;stroke-linecap:square;stroke-linejoin:round;stroke-miterlimit:4;stroke-dasharray:none;stroke-opacity:1" d="M151.4-340.6a23.6 23.7 0 0 1 23.5-.2 23.6 23.7 0 0 1 12 20.2"/></g><g style="fill:none;fill-opacity:1;stroke:#dcd5b8;stroke-width:6.3952;stroke-miterlimit:4;stroke-dasharray:none;stroke-opacity:1"><path transform="scale(-.1716 .1724) rotate(-33.4 -279.4 1511.6)" style="fill:none;fill-opacity:1;stroke:#dcd5b8;stroke-width:6.3952;stroke-linecap:square;stroke-linejoin:round;stroke-miterlimit:4;stroke-dasharray:none;stroke-opacity:1" d="M-272.1 268.6a33 33 0 0 1 32.7-.4 33 33 0 0 1 17 28.1"/><path transform="matrix(-.15176 .08049 -.07655 -.1543 150.8 16.6)" style="fill:none;fill-opacity:1;stroke:#dcd5b8;stroke-width:6.39608;stroke-linecap:square;stroke-linejoin:round;stroke-miterlimit:4;stroke-dasharray:none;stroke-opacity:1" d="M145-337.4a28.4 29.2 0 0 1 28.3-.3 28.4 29.2 0 0 1 14.6 25"/></g><path style="fill:none;fill-opacity:1;stroke:#dcd5b8;stroke-width:1.71499;stroke-linecap:square;stroke-linejoin:round;stroke-miterlimit:4;stroke-dasharray:none;stroke-opacity:1" d="M644 333.7h84" transform="matrix(-.6411 0 0 -.64171 559.1 293.9)"/></g><path style="fill:none;fill-opacity:1;stroke:#dcd5b8;stroke-width:1.08157;stroke-linecap:square;stroke-linejoin:round;stroke-miterlimit:4;stroke-dasharray:none;stroke-opacity:1" d="M608 348.6h40.4" transform="rotate(180 381.7 216.3) scale(1.01704)"/></g></g></svg>